<svg width="56" height="56" viewBox="0 0 56 56" fill="none" xmlns="http://www.w3.org/2000/svg">
<rect x="48" y="36" width="4" height="8" fill="#AB5130"/>
<rect x="4" y="36" width="4" height="8" fill="#AB5130"/>
<rect x="4" y="12" width="4" height="8" fill="#AB5130"/>
<rect x="48" y="12" width="4" height="8" fill="#AB5130"/>
<rect x="52" y="20" width="4" height="16" fill="#AB5130"/>
<rect y="20" width="4" height="16" fill="#AB5130"/>
<rect x="8" y="8" width="4" height="4" fill="#AB5130"/>
<rect x="12" y="8" width="4" height="4" fill="#FFCE00"/>
<rect x="8" y="12" width="4" height="4" fill="#FFCE00"/>
<rect x="8" y="16" width="4" height="4" fill="#FFCE00"/>
<rect x="8" y="20" width="4" height="4" fill="#FFCE00"/>
<rect x="8" y="24" width="4" height="4" fill="#FFCE00"/>
<rect x="8" y="28" width="4" height="4" fill="#FFCE00"/>
<rect x="8" y="32" width="4" height="4" fill="#FFCE00"/>
<rect x="8" y="36" width="4" height="4" fill="#FFCE00"/>
<rect x="8" y="40" width="4" height="4" fill="#FFCE00"/>
<rect x="4" y="20" width="4" height="4" fill="#FFCE00"/>
<rect x="48" y="20" width="4" height="4" fill="#FFCE00"/>
<rect x="44" y="20" width="4" height="4" fill="#FFCE00"/>
<rect x="44" y="12" width="4" height="4" fill="#FFCE00"/>
<rect x="44" y="16" width="4" height="4" fill="#FFCE00"/>
<rect x="4" y="24" width="4" height="4" fill="#FFCE00"/>
<rect x="48" y="24" width="4" height="4" fill="#FFCE00"/>
<rect x="44" y="24" width="4" height="4" fill="#FFCE00"/>
<rect x="4" y="28" width="4" height="4" fill="#FFCE00"/>
<rect x="48" y="28" width="4" height="4" fill="#FFCE00"/>
<rect x="44" y="28" width="4" height="4" fill="#FFCE00"/>
<rect x="4" y="32" width="4" height="4" fill="#FFCE00"/>
<rect x="48" y="32" width="4" height="4" fill="#FFCE00"/>
<rect x="44" y="32" width="4" height="4" fill="#FFCE00"/>
<rect x="44" y="36" width="4" height="4" fill="#FFCE00"/>
<rect x="44" y="40" width="4" height="4" fill="#FFCE00"/>
<rect x="20" y="48" width="4" height="4" fill="#FFCE00"/>
<rect x="24" y="48" width="4" height="4" fill="#FFCE00"/>
<rect x="28" y="48" width="4" height="4" fill="#FFCE00"/>
<rect x="32" y="48" width="4" height="4" fill="#FFCE00"/>
<rect x="16" y="8" width="4" height="4" fill="#FFCE00"/>
<rect x="20" y="8" width="4" height="4" fill="#FFCE00"/>
<rect x="12" y="12" width="4" height="4" fill="#FFCE00"/>
<rect x="12" y="16" width="4" height="4" fill="#FFCE00"/>
<rect x="12" y="20" width="4" height="4" fill="#FFCE00"/>
<rect x="12" y="24" width="4" height="4" fill="#FFCE00"/>
<rect x="12" y="28" width="4" height="4" fill="#FFCE00"/>
<rect x="12" y="32" width="4" height="4" fill="#FFCE00"/>
<rect x="12" y="36" width="4" height="4" fill="#FFCE00"/>
<rect x="12" y="40" width="4" height="4" fill="#FFCE00"/>
<rect x="12" y="44" width="4" height="4" fill="#FFCE00"/>
<rect x="16" y="12" width="4" height="4" fill="#FFCE00"/>
<rect x="16" y="16" width="4" height="4" fill="#FFCE00"/>
<rect x="16" y="20" width="4" height="4" fill="#FFCE00"/>
<rect x="16" y="24" width="4" height="4" fill="#FFCE00"/>
<rect x="16" y="28" width="4" height="4" fill="#FFCE00"/>
<rect x="16" y="32" width="4" height="4" fill="#FFCE00"/>
<rect x="16" y="36" width="4" height="4" fill="#FFCE00"/>
<rect x="16" y="40" width="4" height="4" fill="#FFCE00"/>
<rect x="16" y="44" width="4" height="4" fill="#FFCE00"/>
<rect x="20" y="12" width="4" height="4" fill="#FFCE00"/>
<rect x="20" y="16" width="4" height="4" fill="#FFCE00"/>
<rect x="20" y="20" width="4" height="4" fill="#FFCE00"/>
<rect x="20" y="24" width="4" height="4" fill="#FFCE00"/>
<rect x="20" y="28" width="4" height="4" fill="#FFCE00"/>
<rect x="20" y="32" width="4" height="4" fill="#FFCE00"/>
<rect x="20" y="36" width="4" height="4" fill="#FFCE00"/>
<rect x="20" y="40" width="4" height="4" fill="#FFCE00"/>
<rect x="20" y="44" width="4" height="4" fill="#FFCE00"/>
<rect x="24" y="12" width="4" height="4" fill="#FFCE00"/>
<rect x="24" y="16" width="4" height="4" fill="#FFCE00"/>
<rect x="24" y="20" width="4" height="4" fill="#FFCE00"/>
<rect x="24" y="24" width="4" height="4" fill="#FFCE00"/>
<rect x="24" y="28" width="4" height="4" fill="#FFCE00"/>
<rect x="24" y="32" width="4" height="4" fill="#FFCE00"/>
<rect x="24" y="36" width="4" height="4" fill="#FFCE00"/>
<rect x="24" y="40" width="4" height="4" fill="#FFCE00"/>
<rect x="24" y="44" width="4" height="4" fill="#FFCE00"/>
<rect x="28" y="12" width="4" height="4" fill="#FFCE00"/>
<rect x="28" y="16" width="4" height="4" fill="#FFCE00"/>
<rect x="28" y="20" width="4" height="4" fill="#FFCE00"/>
<rect x="28" y="24" width="4" height="4" fill="#FFCE00"/>
<rect x="28" y="28" width="4" height="4" fill="#FFCE00"/>
<rect x="28" y="32" width="4" height="4" fill="#FFCE00"/>
<rect x="28" y="36" width="4" height="4" fill="#FFCE00"/>
<rect x="28" y="40" width="4" height="4" fill="#FFCE00"/>
<rect x="28" y="44" width="4" height="4" fill="#FFCE00"/>
<rect x="32" y="12" width="4" height="4" fill="#FFCE00"/>
<rect x="32" y="16" width="4" height="4" fill="#FFCE00"/>
<rect x="32" y="20" width="4" height="4" fill="#FFCE00"/>
<rect x="32" y="24" width="4" height="4" fill="#FFCE00"/>
<rect x="32" y="28" width="4" height="4" fill="#FFCE00"/>
<rect x="32" y="32" width="4" height="4" fill="#FFCE00"/>
<rect x="32" y="36" width="4" height="4" fill="#FFCE00"/>
<rect x="32" y="40" width="4" height="4" fill="#FFCE00"/>
<rect x="32" y="44" width="4" height="4" fill="#FFCE00"/>
<rect x="36" y="12" width="4" height="4" fill="#FFCE00"/>
<rect x="36" y="16" width="4" height="4" fill="#FFCE00"/>
<rect x="36" y="20" width="4" height="4" fill="#FFCE00"/>
<rect x="36" y="24" width="4" height="4" fill="#FFCE00"/>
<rect x="36" y="28" width="4" height="4" fill="#FFCE00"/>
<rect x="36" y="32" width="4" height="4" fill="#FFCE00"/>
<rect x="36" y="36" width="4" height="4" fill="#FFCE00"/>
<rect x="36" y="40" width="4" height="4" fill="#FFCE00"/>
<rect x="36" y="44" width="4" height="4" fill="#FFCE00"/>
<rect x="40" y="12" width="4" height="4" fill="#FFCE00"/>
<rect x="40" y="16" width="4" height="4" fill="#FFCE00"/>
<rect x="40" y="20" width="4" height="4" fill="#FFCE00"/>
<rect x="40" y="24" width="4" height="4" fill="#FFCE00"/>
<rect x="40" y="28" width="4" height="4" fill="#FFCE00"/>
<rect x="40" y="32" width="4" height="4" fill="#FFCE00"/>
<rect x="40" y="36" width="4" height="4" fill="#FFCE00"/>
<rect x="40" y="40" width="4" height="4" fill="#FFCE00"/>
<rect x="40" y="44" width="4" height="4" fill="#FFCE00"/>
<rect x="24" y="8" width="4" height="4" fill="#FFCE00"/>
<rect x="28" y="8" width="4" height="4" fill="#FFCE00"/>
<rect x="32" y="8" width="4" height="4" fill="#FFCE00"/>
<rect x="36" y="8" width="4" height="4" fill="#FFCE00"/>
<rect x="20" y="4" width="4" height="4" fill="#FFCE00"/>
<rect x="24" y="4" width="4" height="4" fill="#FFCE00"/>
<rect x="28" y="4" width="4" height="4" fill="#FFCE00"/>
<rect x="32" y="4" width="4" height="4" fill="#FFCE00"/>
<rect x="40" y="8" width="4" height="4" fill="#FFCE00"/>
<rect x="44" y="8" width="4" height="4" fill="#AB5130"/>
<rect x="36" y="4" width="8" height="4" fill="#AB5130"/>
<rect x="12" y="4" width="8" height="4" fill="#AB5130"/>
<rect x="12" y="48" width="8" height="4" fill="#AB5130"/>
<rect x="36" y="48" width="8" height="4" fill="#AB5130"/>
<rect x="20" y="52" width="16" height="4" fill="#AB5130"/>
<rect x="20" width="16" height="4" fill="#AB5130"/>
<rect x="20" y="4" width="16" height="4" fill="#FFEE83"/>
<rect x="20" y="48" width="16" height="4" fill="#EC8C32"/>
<rect x="48" y="20" width="4" height="16" fill="#EC8C32"/>
<rect x="44" y="36" width="4" height="8" fill="#EC8C32"/>
<rect x="36" y="44" width="8" height="4" fill="#EC8C32"/>
<rect x="44" y="12" width="4" height="4" fill="#FFEE83"/>
<rect x="44" y="44" width="4" height="4" fill="#AB5130"/>
<rect x="8" y="44" width="4" height="4" fill="#AB5130"/>
<rect x="4" y="20" width="4" height="16" fill="#FFEE83"/>
<rect x="8" y="12" width="4" height="8" fill="#FFEE83"/>
<rect x="12" y="8" width="8" height="4" fill="#FFEE83"/>
<rect x="8" y="40" width="4" height="4" fill="#FFEE83"/>
<rect x="8" y="36" width="4" height="4" fill="#FFEE83"/>
<rect x="12" y="44" width="4" height="4" fill="#FFEE83"/>
<rect x="16" y="44" width="4" height="4" fill="#FFEE83"/>
<rect x="8" y="32" width="4" height="4" fill="#FFEE83"/>
<rect x="40" y="8" width="4" height="4" fill="#FFEE83"/>
<rect x="36" y="8" width="4" height="4" fill="#FFEE83"/>
<rect x="34" y="18" width="4" height="4" fill="#87511F"/>
<rect x="18" y="18" width="4" height="4" fill="#87511F"/>
<rect x="20" y="22" width="4" height="4" fill="#87511F"/>
<rect x="22" y="24" width="4" height="4" fill="#87511F"/>
<rect x="24" y="26" width="4" height="4" fill="#87511F"/>
<rect x="26" y="30" width="4" height="4" fill="#87511F"/>
<rect x="28" y="26" width="4" height="4" fill="#87511F"/>
<rect x="30" y="24" width="4" height="4" fill="#87511F"/>
<rect x="32" y="22" width="4" height="4" fill="#87511F"/>
<rect x="34" y="18" width="4" height="4" fill="#87511F"/>
<rect x="34" y="22" width="4" height="4" fill="#87511F"/>
<rect x="34" y="26" width="4" height="4" fill="#87511F"/>
<rect x="34" y="30" width="4" height="4" fill="#87511F"/>
<rect x="34" y="34" width="4" height="4" fill="#87511F"/>
<rect x="18" y="18" width="4" height="4" fill="#87511F"/>
<rect x="18" y="22" width="4" height="4" fill="#87511F"/>
<rect x="18" y="26" width="4" height="4" fill="#87511F"/>
<rect x="18" y="30" width="4" height="4" fill="#87511F"/>
<rect x="18" y="34" width="4" height="4" fill="#87511F"/>
</svg>
