<svg width="2400" height="2400" viewBox="0 0 2400 2400" fill="none" xmlns="http://www.w3.org/2000/svg">
<g style="mix-blend-mode:soft-light" clip-path="url(#clip0_244_27806)">
<path d="M1106.42 2404.02H1293.58L1199.99 1202.01L1106.42 2404.02Z" fill="url(#paint0_linear_244_27806)"/>
<path d="M700.951 2299.53L876.825 2363.54L1199.99 1202.01L700.951 2299.53Z" fill="url(#paint1_linear_244_27806)"/>
<path d="M355.676 2062.65L499.049 2182.96L1199.99 1202L355.676 2062.65Z" fill="url(#paint2_linear_244_27806)"/>
<path d="M112.238 1721.97L205.818 1884.06L1199.99 1202L112.238 1721.97Z" fill="url(#paint3_linear_244_27806)"/>
<path d="M0.000166022 1318.58L32.5003 1502.9L1200 1202L0.000166022 1318.58Z" fill="url(#paint4_linear_244_27806)"/>
<path d="M32.5002 901.125L9.75932e-05 1085.44L1200 1202L32.5002 901.125Z" fill="url(#paint5_linear_244_27806)"/>
<path d="M205.818 519.963L112.238 682.049L1200.01 1202L205.818 519.963Z" fill="url(#paint6_linear_244_27806)"/>
<path d="M499.049 221.065L355.676 341.37L1200.01 1202L499.049 221.065Z" fill="url(#paint7_linear_244_27806)"/>
<path d="M876.825 40.4834L700.951 104.496L1200.01 1202.01L876.825 40.4834Z" fill="url(#paint8_linear_244_27806)"/>
<path d="M1293.58 0.000244141H1106.42L1200.01 1202.01L1293.58 0.000244141Z" fill="url(#paint9_linear_244_27806)"/>
<path d="M1699.05 104.496L1523.17 40.4837L1200.01 1202.02L1699.05 104.496Z" fill="url(#paint10_linear_244_27806)"/>
<path d="M2044.32 341.37L1900.95 221.066L1200.01 1202.02L2044.32 341.37Z" fill="url(#paint11_linear_244_27806)"/>
<path d="M2287.76 682.049L2194.18 519.963L1200.01 1202.02L2287.76 682.049Z" fill="url(#paint12_linear_244_27806)"/>
<path d="M2400 1085.44L2367.5 901.126L1200 1202.03L2400 1085.44Z" fill="url(#paint13_linear_244_27806)"/>
<path d="M2367.5 1502.9L2400 1318.58L1200 1202.03L2367.5 1502.9Z" fill="url(#paint14_linear_244_27806)"/>
<path d="M2194.18 1884.06L2287.76 1721.97L1199.99 1202.02L2194.18 1884.06Z" fill="url(#paint15_linear_244_27806)"/>
<path d="M1900.95 2182.96L2044.32 2062.65L1199.99 1202.02L1900.95 2182.96Z" fill="url(#paint16_linear_244_27806)"/>
<path d="M1523.17 2363.54L1699.05 2299.53L1199.99 1202.02L1523.17 2363.54Z" fill="url(#paint17_linear_244_27806)"/>
</g>
<defs>
<linearGradient id="paint0_linear_244_27806" x1="1200" y1="1202.01" x2="1200" y2="2021.16" gradientUnits="userSpaceOnUse">
<stop stop-color="#FFFFE9" stop-opacity="0.8"/>
<stop offset="1" stop-color="#FFFCDD" stop-opacity="0"/>
</linearGradient>
<linearGradient id="paint1_linear_244_27806" x1="1200" y1="1202.01" x2="919.834" y2="1971.76" gradientUnits="userSpaceOnUse">
<stop stop-color="#FFFFE9" stop-opacity="0.8"/>
<stop offset="1" stop-color="#FFFCDD" stop-opacity="0"/>
</linearGradient>
<linearGradient id="paint2_linear_244_27806" x1="1200" y1="1202.01" x2="673.461" y2="1829.52" gradientUnits="userSpaceOnUse">
<stop stop-color="#FFFFE9" stop-opacity="0.8"/>
<stop offset="1" stop-color="#FFFCDD" stop-opacity="0"/>
</linearGradient>
<linearGradient id="paint3_linear_244_27806" x1="1200" y1="1202.01" x2="490.595" y2="1611.59" gradientUnits="userSpaceOnUse">
<stop stop-color="#FFFFE9" stop-opacity="0.8"/>
<stop offset="1" stop-color="#FFFCDD" stop-opacity="0"/>
</linearGradient>
<linearGradient id="paint4_linear_244_27806" x1="1200" y1="1202.01" x2="393.294" y2="1344.26" gradientUnits="userSpaceOnUse">
<stop stop-color="#FFFFE9" stop-opacity="0.8"/>
<stop offset="1" stop-color="#FFFCDD" stop-opacity="0"/>
</linearGradient>
<linearGradient id="paint5_linear_244_27806" x1="1200" y1="1202.01" x2="393.294" y2="1059.77" gradientUnits="userSpaceOnUse">
<stop stop-color="#FFFFE9" stop-opacity="0.8"/>
<stop offset="1" stop-color="#FFFCDD" stop-opacity="0"/>
</linearGradient>
<linearGradient id="paint6_linear_244_27806" x1="1200" y1="1202.01" x2="490.595" y2="792.436" gradientUnits="userSpaceOnUse">
<stop stop-color="#FFFFE9" stop-opacity="0.8"/>
<stop offset="1" stop-color="#FFFCDD" stop-opacity="0"/>
</linearGradient>
<linearGradient id="paint7_linear_244_27806" x1="1200" y1="1202.01" x2="673.46" y2="574.506" gradientUnits="userSpaceOnUse">
<stop stop-color="#FFFFE9" stop-opacity="0.8"/>
<stop offset="1" stop-color="#FFFCDD" stop-opacity="0"/>
</linearGradient>
<linearGradient id="paint8_linear_244_27806" x1="1200" y1="1202.01" x2="919.834" y2="432.261" gradientUnits="userSpaceOnUse">
<stop stop-color="#FFFFE9" stop-opacity="0.8"/>
<stop offset="1" stop-color="#FFFCDD" stop-opacity="0"/>
</linearGradient>
<linearGradient id="paint9_linear_244_27806" x1="1200" y1="1202.01" x2="1200" y2="382.861" gradientUnits="userSpaceOnUse">
<stop stop-color="#FFFFE9" stop-opacity="0.8"/>
<stop offset="1" stop-color="#FFFCDD" stop-opacity="0"/>
</linearGradient>
<linearGradient id="paint10_linear_244_27806" x1="1200" y1="1202.01" x2="1480.17" y2="432.261" gradientUnits="userSpaceOnUse">
<stop stop-color="#FFFFE9" stop-opacity="0.8"/>
<stop offset="1" stop-color="#FFFCDD" stop-opacity="0"/>
</linearGradient>
<linearGradient id="paint11_linear_244_27806" x1="1200" y1="1202.01" x2="1726.54" y2="574.506" gradientUnits="userSpaceOnUse">
<stop stop-color="#FFFFE9" stop-opacity="0.8"/>
<stop offset="1" stop-color="#FFFCDD" stop-opacity="0"/>
</linearGradient>
<linearGradient id="paint12_linear_244_27806" x1="1200" y1="1202.01" x2="1909.41" y2="792.436" gradientUnits="userSpaceOnUse">
<stop stop-color="#FFFFE9" stop-opacity="0.8"/>
<stop offset="1" stop-color="#FFFCDD" stop-opacity="0"/>
</linearGradient>
<linearGradient id="paint13_linear_244_27806" x1="1200" y1="1202.01" x2="2006.71" y2="1059.77" gradientUnits="userSpaceOnUse">
<stop stop-color="#FFFFE9" stop-opacity="0.8"/>
<stop offset="1" stop-color="#FFFCDD" stop-opacity="0"/>
</linearGradient>
<linearGradient id="paint14_linear_244_27806" x1="1200" y1="1202.01" x2="2006.71" y2="1344.26" gradientUnits="userSpaceOnUse">
<stop stop-color="#FFFFE9" stop-opacity="0.8"/>
<stop offset="1" stop-color="#FFFCDD" stop-opacity="0"/>
</linearGradient>
<linearGradient id="paint15_linear_244_27806" x1="1200" y1="1202.01" x2="1909.4" y2="1611.59" gradientUnits="userSpaceOnUse">
<stop stop-color="#FFFFE9" stop-opacity="0.8"/>
<stop offset="1" stop-color="#FFFCDD" stop-opacity="0"/>
</linearGradient>
<linearGradient id="paint16_linear_244_27806" x1="1200" y1="1202.01" x2="1726.54" y2="1829.52" gradientUnits="userSpaceOnUse">
<stop stop-color="#FFFFE9" stop-opacity="0.8"/>
<stop offset="1" stop-color="#FFFCDD" stop-opacity="0"/>
</linearGradient>
<linearGradient id="paint17_linear_244_27806" x1="1200" y1="1202.01" x2="1480.17" y2="1971.76" gradientUnits="userSpaceOnUse">
<stop stop-color="#FFFFE9" stop-opacity="0.8"/>
<stop offset="1" stop-color="#FFFCDD" stop-opacity="0"/>
</linearGradient>
<clipPath id="clip0_244_27806">
<rect width="2400" height="2400" fill="white"/>
</clipPath>
</defs>
</svg>
